<svg width="279" height="47" viewBox="0 0 279 47" fill="none" xmlns="http://www.w3.org/2000/svg">
<path d="M32.904 19.944H24.116C24.064 19.164 23.856 17.604 22.14 16.512C20.944 15.784 19.28 15.524 17.824 15.524C15.796 15.524 13.82 15.992 12.364 17.656C10.44 19.84 10.388 23.116 10.388 24.052C10.388 27.016 11.324 29.096 12.52 30.292C14.08 31.852 16.16 32.06 17.876 32.06C19.072 32.06 20.892 31.956 22.192 31.02C23.284 30.24 24.116 28.836 24.168 27.068H33.008V27.224C33.008 30.708 31.5 33.1 30.2 34.452C27.028 37.728 22.296 37.988 17.512 37.988C13.248 37.988 7.996 37.728 4.512 34.244C3.212 32.944 0.924 29.98 0.924 24.208C0.924 18.956 2.744 15.784 4.46 13.964C7.996 10.22 13.248 9.596 17.252 9.596C23.44 9.596 26.612 10.948 28.12 11.832C32.228 14.224 32.852 17.656 32.904 19.944ZM42.2343 0.599998H51.3863V13.444C52.2183 12.352 53.3103 11.416 54.8703 10.74C57.0023 9.804 59.6543 9.7 61.0063 9.7C63.9703 9.7 66.8303 10.272 68.7543 11.468C72.6543 13.912 72.7063 18.176 72.7063 21.088V37H63.5543V22.7C63.5543 21.348 63.5543 18.8 62.1503 17.292C61.4223 16.512 60.1223 15.836 58.0423 15.836C56.2743 15.836 54.6623 16.252 53.3623 17.708C51.5423 19.736 51.3863 22.752 51.3863 25.04V37H42.2343V0.599998ZM91.5295 20.828H106.142C106.038 18.696 104.998 17.396 104.27 16.772C102.71 15.368 100.578 15.212 98.8615 15.212C96.9895 15.212 95.2735 15.42 93.7135 16.668C92.6735 17.5 91.6855 18.852 91.5295 20.828ZM105.986 28.368H115.19C114.878 31.748 113.058 34.972 109.47 36.584C106.974 37.676 103.802 37.988 99.5375 37.988C93.5575 37.988 89.0335 37.468 85.6535 34.088C82.6375 31.072 82.0135 27.484 82.0135 24.208C82.0135 21.504 82.4815 17.084 85.9655 13.704C89.6055 10.168 94.6495 9.596 98.8095 9.596C102.918 9.596 108.378 10.272 111.966 13.86C115.242 17.136 115.554 21.4 115.554 24.572V25.508H91.3735V25.664C91.3735 27.952 92.2055 29.512 93.0895 30.396C94.6495 31.956 97.1455 32.164 98.9135 32.164C100.266 32.164 102.346 32.06 103.646 31.436C104.634 30.968 105.622 30.084 105.986 28.368ZM133.166 20.828H147.778C147.674 18.696 146.634 17.396 145.906 16.772C144.346 15.368 142.214 15.212 140.498 15.212C138.626 15.212 136.91 15.42 135.35 16.668C134.31 17.5 133.322 18.852 133.166 20.828ZM147.622 28.368H156.826C156.514 31.748 154.694 34.972 151.106 36.584C148.61 37.676 145.438 37.988 141.174 37.988C135.194 37.988 130.67 37.468 127.29 34.088C124.274 31.072 123.65 27.484 123.65 24.208C123.65 21.504 124.118 17.084 127.602 13.704C131.242 10.168 136.286 9.596 140.446 9.596C144.554 9.596 150.014 10.272 153.602 13.86C156.878 17.136 157.19 21.4 157.19 24.572V25.508H133.01V25.664C133.01 27.952 133.842 29.512 134.726 30.396C136.286 31.956 138.782 32.164 140.55 32.164C141.902 32.164 143.982 32.06 145.282 31.436C146.27 30.968 147.258 30.084 147.622 28.368ZM187.179 10.168V16.46C186.711 16.408 185.931 16.356 185.255 16.356C182.707 16.356 180.783 16.876 179.431 17.812C175.999 20.152 175.687 25.092 175.687 27.068V37H166.535V10.584H175.323V14.9C175.999 13.756 177.247 12.248 179.327 11.156C181.043 10.272 182.863 9.96 184.787 9.96C185.619 9.96 186.347 10.012 187.179 10.168ZM192.696 28.68H201.64V28.836C201.64 30.292 202.576 31.124 203.356 31.54C203.668 31.696 204.708 32.216 207.464 32.216C209.544 32.216 210.584 31.904 211.156 31.592C212.404 30.968 212.612 30.032 212.612 29.512C212.612 28.056 211.468 27.484 210.636 27.172C209.388 26.704 208.036 26.548 206.164 26.288L203.044 25.82C198.78 25.196 196.96 24.624 195.816 23.896C193.528 22.492 192.956 20.308 192.956 18.28C192.956 15.108 194.36 12.976 196.96 11.468C198.884 10.324 201.796 9.544 206.84 9.544C212.612 9.544 215.056 10.48 216.148 10.948C219.476 12.456 220.672 14.744 220.724 17.864H211.988V17.76C211.988 16.876 211.572 16.096 210.48 15.576C209.492 15.108 207.984 14.952 206.892 14.952C205.748 14.952 204.292 15.108 203.46 15.524C202.42 16.044 201.952 16.928 201.952 17.656C201.952 18.8 202.94 19.32 203.512 19.58C204.708 20.1 206.216 20.204 208.868 20.62L212.404 21.14C214.172 21.4 217.5 22.024 219.424 23.584C220.776 24.676 221.972 26.392 221.972 29.148C221.972 31.54 221.14 33.36 219.84 34.764C216.98 37.832 212.612 38.04 208.192 38.04C202.68 38.04 198 37.676 195.14 34.92C192.904 32.736 192.696 30.188 192.696 28.784V28.68ZM230.968 0.599998H240.12V37H230.968V0.599998ZM250.715 46.204V40.536C252.015 40.952 253.107 41.004 253.471 41.004C254.615 41.004 255.811 40.744 256.591 40.12C257.423 39.444 258.203 37.988 258.567 36.948L259.087 35.388L247.855 10.584H257.059L264.079 28.212L270.215 10.584H278.795L267.563 37.468C266.419 40.172 265.327 42.824 263.559 44.488C261.219 46.724 258.567 46.932 255.967 46.932C253.991 46.932 252.639 46.828 250.715 46.204Z" fill="white"/>
</svg>
